<svg width="14.000000" height="14.000000" viewBox="0 0 14 14" fill="none" xmlns="http://www.w3.org/2000/svg" xmlns:xlink="http://www.w3.org/1999/xlink">
	<desc>
			Created with Pixso.
	</desc>
	<defs>
		<clipPath id="clip2795_1012">
			<rect id="like" width="14.000000" height="14.000000" transform="translate(0.000000 -0.500000)" fill="white" fill-opacity="0"/>
		</clipPath>
	</defs>
	<rect id="like" width="14.000000" height="14.000000" transform="translate(0.000000 -0.500000)" fill="#FFFFFF" fill-opacity="0"/>
	<g clip-path="url(#clip2795_1012)">
		<path id="Vector" d="M8.96 4.16L9.19 2.89L9.2 2.85C9.31 2.28 9.44 1.6 9.36 1.02C9.32 0.73 9.24 0.48 9.09 0.28C8.95 0.09 8.74 -0.07 8.41 -0.16C7.9 -0.31 7.54 -0.19 7.21 0.07C6.86 0.36 6.54 0.81 6.17 1.36L6.17 1.36C5.95 1.69 5.71 2.04 5.43 2.38C5.12 2.76 4.8 3.13 4.47 3.49L4.47 13.12L8.75 13.12C9.57 13.12 10.64 12.69 11.59 11.89C12.53 11.09 13.33 9.95 13.61 8.59C14.18 5.89 12.24 4.16 10.6 4.16L8.96 4.16ZM3.07 13.12L3.07 4.16L0.79 4.16C0.66 4.16 0.52 4.22 0.43 4.32C0.33 4.41 0.27 4.55 0.27 4.68L0.27 12.6C0.27 12.89 0.51 13.12 0.79 13.12L3.07 13.12Z" fill="#FFFFFF" fill-opacity="1.000000" fill-rule="nonzero"/>
	</g>
</svg>
