<svg width="14.000000" height="12.000000" viewBox="0 0 14 12" fill="none" xmlns="http://www.w3.org/2000/svg" xmlns:xlink="http://www.w3.org/1999/xlink">
	<desc>
			Created with Pixso.
	</desc>
	<defs/>
	<path id="Path" d="M11.17 3.65C10.72 2.47 9.85 1.5 8.73 0.91C7.58 0.31 6.25 0.15 4.97 0.49C2.2 1.23 0.55 4.07 1.3 6.84C2.04 9.6 4.89 11.24 7.66 10.5C8.98 10.14 10.09 9.3 10.77 8.15C10.84 8.04 10.9 7.93 10.96 7.81C11.1 7.54 11.42 7.39 11.71 7.49L11.71 7.49C12 7.6 12.15 7.93 12.01 8.21C11.93 8.38 11.84 8.55 11.74 8.72C10.9 10.12 9.56 11.15 7.95 11.58C4.58 12.48 1.12 10.49 0.21 7.13C-0.69 3.77 1.31 0.31 4.68 -0.59C6.23 -1 7.86 -0.81 9.25 -0.08C10.51 0.58 11.51 1.64 12.08 2.93L12.75 0.85C12.85 0.55 13.16 0.39 13.46 0.48L13.46 0.48C13.75 0.58 13.92 0.89 13.82 1.19L12.57 5.1L8.54 4.23C8.24 4.16 8.05 3.86 8.11 3.56L8.11 3.56C8.18 3.26 8.48 3.07 8.78 3.13L11.17 3.65Z" fill="#FFFFFF" fill-opacity="1.000000" fill-rule="nonzero"/>
	<path id="Path" d="M8.73 0.91C7.58 0.31 6.25 0.15 4.97 0.49C2.2 1.23 0.55 4.07 1.3 6.84C2.04 9.6 4.89 11.24 7.66 10.5C8.98 10.14 10.09 9.3 10.77 8.15C10.84 8.04 10.9 7.93 10.96 7.81C11.1 7.54 11.42 7.39 11.71 7.49C12 7.6 12.15 7.93 12.01 8.21C11.93 8.38 11.84 8.55 11.74 8.72C10.9 10.12 9.56 11.15 7.95 11.58C4.58 12.48 1.12 10.49 0.21 7.13C-0.69 3.77 1.31 0.31 4.68 -0.59C6.23 -1 7.86 -0.81 9.25 -0.08C10.51 0.58 11.51 1.64 12.08 2.93L12.75 0.85C12.85 0.55 13.16 0.39 13.46 0.48C13.75 0.58 13.92 0.89 13.82 1.19L12.57 5.1L8.54 4.23C8.24 4.16 8.05 3.86 8.11 3.56C8.18 3.26 8.48 3.07 8.78 3.13L11.17 3.65C10.72 2.47 9.85 1.5 8.73 0.91Z" stroke="#FFFFFF" stroke-opacity="1.000000" stroke-width="0.200000"/>
</svg>
