<svg width="290.000000" height="310.000000" viewBox="0 0 290 310" fill="none" xmlns="http://www.w3.org/2000/svg" xmlns:xlink="http://www.w3.org/1999/xlink">
	<desc>
			Created with Pixso.
	</desc>
	<defs>
		<clipPath id="clip80_31">
			<rect id="Cat" width="290.000000" height="310.000000" fill="white" fill-opacity="0"/>
		</clipPath>
	</defs>
	<g clip-path="url(#clip80_31)">
		<path id="path" d="M228.25 35.3L220.05 34.79C216.85 33.79 211.26 31.64 208.67 26.93C207.21 24.27 198.88 25.89 195.58 26.7C191.44 27.71 191.22 9.27 184.39 9.76C177.56 10.24 172.01 20.15 173.58 33.49C170.84 35.52 165.48 40.16 165.92 42.52C160.87 42.79 150.26 44.47 148.28 48.96C146.84 52.22 154.28 65.58 162.13 77.05C165.08 81.37 173.18 92.64 180.95 97.11L125.46 104.07C117.72 103.58 106.49 88.21 108.27 77.34C109.82 67.94 123.84 55.57 125.84 43.21C128.53 26.67 117.3 8.08 95.35 6.4C74 4.76 62.19 14.31 64.81 25.02C65.9 29.45 72.01 31.16 82.57 30.53C97.99 29.61 100.83 37.39 101.95 40.46C104.01 46.12 95.97 53.69 90.27 59.51C84.57 65.33 79.85 76.51 87.56 92.97C94.56 107.92 100.02 107.25 99.58 122.7C99.22 135.07 107.37 156.94 111.49 166.33C110.6 171.81 109.04 183.42 109.98 186C110.92 188.58 120.46 216.65 125.12 230.36L158.16 224.22L160.2 220.52C163.12 219.23 167.91 215.66 168.97 213.26C169.68 211.68 167.79 206.5 165.53 200.32C164.96 198.75 158.52 196.41 155.68 196.44C155.78 192.04 155.99 178.85 158.47 172.58C170.58 171.05 187.18 167.81 192.33 162.56C196.56 165.25 205.99 173.33 209.93 184.13C214.85 197.63 216.69 209.82 221.38 211.24C225.13 212.37 244.94 208.78 254.37 206.85L264.65 189.37L270.88 178.75L266.24 166.02C259.59 165.59 246.18 162.01 245.7 151.08C245.1 137.41 248.05 114.78 243.6 107.27C239.16 99.75 227.78 86.61 228.78 79.67C229.78 72.72 230.51 69.05 234.17 67.71C237.82 66.38 249.44 45.49 228.25 35.3Z" fill="#524F4F" fill-opacity="1.000000" fill-rule="nonzero"/>
		<path id="path" d="M165.92 42.52C165.48 40.16 170.84 35.52 173.58 33.49C172.01 20.15 177.56 10.24 184.39 9.76C188.19 9.48 189.94 15.06 191.46 19.9C192.67 23.76 193.74 27.15 195.58 26.7C198.88 25.89 207.21 24.27 208.67 26.93C211.26 31.64 216.85 33.79 220.05 34.79L228.25 35.3C249.44 45.49 237.82 66.38 234.17 67.71C230.51 69.05 229.78 72.72 228.78 79.67C228.05 84.72 233.9 93.08 238.84 100.15C240.68 102.78 242.4 105.23 243.6 107.27C246.62 112.37 246.23 124.45 245.85 135.96C245.68 141.39 245.5 146.69 245.7 151.08C246.18 162.01 259.59 165.59 266.24 166.02L270.88 178.75L264.65 189.37L254.37 206.85C244.94 208.78 225.13 212.37 221.38 211.24C218.12 210.25 216.24 204.06 213.74 195.84C212.64 192.24 211.43 188.24 209.93 184.13C205.99 173.33 196.56 165.25 192.33 162.56C187.18 167.81 170.58 171.05 158.47 172.58C155.99 178.85 155.78 192.04 155.68 196.44C158.52 196.41 164.96 198.75 165.53 200.32C167.75 206.4 169.67 211.7 168.97 213.26C167.91 215.66 163.12 219.23 160.2 220.52L158.16 224.22L125.12 230.36C120.46 216.65 110.92 188.58 109.98 186C109.04 183.42 110.6 171.81 111.49 166.33C107.37 156.94 99.22 135.07 99.58 122.7C99.87 112.66 97.66 109.43 94.16 104.3C92.27 101.53 90.01 98.21 87.56 92.97C79.85 76.51 84.57 65.33 90.27 59.51C95.97 53.69 104.01 46.12 101.95 40.46C100.83 37.39 97.99 29.61 82.57 30.53C72.01 31.16 65.9 29.45 64.81 25.02C62.19 14.31 74 4.76 95.35 6.4C117.3 8.08 128.53 26.67 125.84 43.21C123.84 55.57 109.82 67.94 108.27 77.34C106.49 88.21 117.72 103.58 125.46 104.07L180.95 97.11C173.18 92.64 165.08 81.37 162.13 77.05C154.28 65.58 146.84 52.22 148.28 48.96C150.26 44.47 160.87 42.79 165.92 42.52Z" fill="#000000" fill-opacity="0" fill-rule="evenodd"/>
		<path id="path" d="M165.92 42.52C165.48 40.16 170.84 35.52 173.58 33.49C172.01 20.15 177.56 10.24 184.39 9.76C191.22 9.27 191.44 27.71 195.58 26.7C198.88 25.89 207.21 24.27 208.67 26.93C211.26 31.64 216.85 33.79 220.05 34.79L228.25 35.3C249.44 45.49 237.82 66.38 234.17 67.71C230.51 69.05 229.78 72.72 228.78 79.67C227.78 86.61 239.16 99.75 243.6 107.27C248.05 114.78 245.1 137.41 245.7 151.08C246.18 162.01 259.59 165.59 266.24 166.02L270.88 178.75L264.65 189.37L254.37 206.85C244.94 208.78 225.13 212.37 221.38 211.24C216.69 209.82 214.85 197.63 209.93 184.13C205.99 173.33 196.56 165.25 192.33 162.56C187.18 167.81 170.58 171.05 158.47 172.58C155.56 172.95 152.91 173.22 150.74 173.39C146.41 175.32 143.79 196.26 144.63 200.47C145.47 204.68 155.35 203.17 158.1 205.47C160.3 207.31 161.78 213.8 162.24 216.82L160.2 220.52L158.16 224.22L125.12 230.36C120.46 216.65 110.92 188.58 109.98 186C109.04 183.42 110.6 171.81 111.49 166.33C107.37 156.94 99.22 135.07 99.58 122.7C100.02 107.25 94.56 107.92 87.56 92.97C79.85 76.51 84.57 65.33 90.27 59.51C95.97 53.69 104.01 46.12 101.95 40.46C100.83 37.39 97.99 29.61 82.57 30.53C72.01 31.16 65.9 29.45 64.81 25.02C62.19 14.31 74 4.76 95.35 6.4C117.3 8.08 128.53 26.67 125.84 43.21C123.84 55.57 109.82 67.94 108.27 77.34C106.49 88.21 117.72 103.58 125.46 104.07L180.95 97.11C173.18 92.64 165.08 81.37 162.13 77.05C154.28 65.58 146.84 52.22 148.28 48.96C150.26 44.47 160.87 42.79 165.92 42.52C167.02 42.89 168.61 43.7 169.51 44.29M264.65 189.37L260.47 177.91C256.04 177.07 247.04 174.97 246.41 173.25C245.63 171.1 236.74 152.59 237.54 141.73M158.47 172.58C155.99 178.85 155.78 192.04 155.68 196.44C158.52 196.41 164.96 198.75 165.53 200.32C167.79 206.5 169.68 211.68 168.97 213.26C167.91 215.66 163.12 219.23 160.2 220.52" stroke="#383434" stroke-opacity="1.000000" stroke-width="4.000000" stroke-linejoin="round" stroke-linecap="round"/>
		<path id="path" d="M243.38 136.88C245.59 135.91 244.92 123.07 244.75 116.77C244.68 114.15 244.14 111.57 243.32 109.52C240.13 102.17 235.66 98.72 234.04 98.82C230.47 99.05 227.07 101.19 229.24 113.1C231.42 125 240.62 138.09 243.38 136.88Z" fill="#FFFFFF" fill-opacity="1.000000" fill-rule="nonzero"/>
		<ellipse id="ellipse" rx="8.476120" ry="12.321100" transform="matrix(-0.939448 0.342691 0.342691 0.939448 230.559 49.9656)" fill="#FFFFFF" fill-opacity="1.000000"/>
		<path id="path" d="M223.61 40.42C224.13 39.04 226.42 36.76 227.97 36.47C230.18 37.6 232.38 38.62 232.91 39.87C233.18 40.68 233.26 42.59 231.35 43.67C228.97 45.02 223 42.06 223.61 40.42Z" fill="#F4AFAF" fill-opacity="1.000000" fill-rule="nonzero"/>
		<path id="path" d="M233.77 45.69C233.83 45.81 233.89 45.93 233.97 46.06C233.9 45.93 233.83 45.81 233.77 45.69ZM239.82 49.77L239.81 49.79L240.69 53.08L240.72 53.1C241.65 52.85 242.18 51.92 241.93 50.98C241.68 50.05 240.75 49.52 239.82 49.77ZM233.79 59.47L233.78 59.5C232.98 60.03 231.93 59.81 231.4 59.01C230.86 58.2 231.08 57.15 231.89 56.62L231.91 56.63L233.79 59.47Z" fill="#000000" fill-opacity="0" fill-rule="evenodd"/>
		<path id="path" d="M232.83 58.06C237.07 55.26 235.47 48.72 233.77 45.69C234.82 47.86 238.96 51.79 240.27 51.43" stroke="#383434" stroke-opacity="1.000000" stroke-width="3.446260" stroke-linejoin="round" stroke-linecap="round"/>
		<ellipse id="ellipse" rx="5.413771" ry="6.027211" transform="matrix(-0.615622 0.788041 0.788041 0.615622 202.765 49.3279)" fill="#383434" fill-opacity="1.000000"/>
		<ellipse id="ellipse" rx="2.228180" ry="2.480660" transform="matrix(-0.615622 0.788041 0.788041 0.615622 200.985 48.7346)" fill="#D9D9D9" fill-opacity="1.000000"/>
	</g>
</svg>
