<svg width="302.000000" height="310.000000" viewBox="0 0 302 310" fill="none" xmlns="http://www.w3.org/2000/svg" xmlns:xlink="http://www.w3.org/1999/xlink">
	<desc>
			Created with Pixso.
	</desc>
	<defs>
		<clipPath id="clip80_40">
			<rect id="Dog" width="302.000000" height="310.000000" fill="white" fill-opacity="0"/>
		</clipPath>
	</defs>
	<g clip-path="url(#clip80_40)">
		<path id="path" d="M243.31 59.49C245.55 54.16 242.88 50.35 241.58 49.04L206.43 38.38C195.85 28.14 186.51 28.51 183.17 29.97C180.5 21.19 174.75 3.38 173.09 2.39C171 1.15 164.77 2.52 162.18 6.37C160.11 9.46 158.05 30.55 157.28 40.71C150.94 45.75 143.5 91.02 139.43 94.51C137.98 95.75 124.99 101.17 108.37 107.81L102.7 92.3C102.06 90.54 62.54 104.8 63.54 107.53L69.25 123.16C60.21 126.66 51.74 129.92 44.86 132.54C32.98 140.16 13.07 163.83 28.48 197.62C33.06 207.16 40.22 230.34 32.27 246.77C31.22 252.85 30.87 266.34 37.82 271.65C42 283.56 48.29 298.69 49.24 299.66C50.69 301.13 79.57 289.11 82.92 287.34C85.6 285.93 80.29 278.58 77.31 275.09C58.2 273.46 64.98 256.73 70.76 248.57C72.57 247.4 74.27 246.1 75.88 244.67C76.68 250.96 102.67 277.67 104.78 279.35C106.48 280.69 127.77 270.13 138.2 264.68C135.81 256.82 132.31 250.34 127.1 252.25C121.9 254.15 105.74 235.78 109.65 225.74C112.79 217.71 110.98 193.33 109.68 182.14C128.09 185.32 156.31 181.18 170.05 178.23C179.51 200.72 199.29 245.63 202.71 245.37C206.99 245.04 232.99 235.26 235.59 233.35C238.19 231.43 232.06 214.28 228.89 215.03C226.36 215.62 223.7 215.51 222.69 215.37C216.37 207 204.8 185.49 209.06 166.44C214.38 142.62 211.86 126.79 208.49 117.59C205.13 108.39 199.78 89.49 204.75 84.54C209.72 79.6 233.55 75.58 236.18 74.22C238.82 72.87 240.59 65.96 243.31 59.49Z" fill="#C2934C" fill-opacity="1.000000" fill-rule="nonzero"/>
		<path id="path" d="M208.49 117.59C211.86 126.79 214.38 142.62 209.06 166.44C204.8 185.49 216.37 207 222.69 215.37C223.7 215.51 226.36 215.62 228.89 215.03C232.06 214.28 238.19 231.43 235.59 233.35C232.99 235.26 206.99 245.04 202.71 245.37C199.29 245.63 179.51 200.72 170.05 178.23C156.31 181.18 128.09 185.32 109.68 182.14C110.98 193.33 112.79 217.71 109.65 225.74C105.74 235.78 121.9 254.15 127.1 252.25C132.31 250.34 135.81 256.82 138.2 264.68C127.77 270.13 106.48 280.69 104.78 279.35C102.67 277.67 76.68 250.96 75.88 244.67C74.27 246.1 72.57 247.4 70.76 248.57C64.98 256.73 58.2 273.46 77.31 275.09C80.29 278.58 85.6 285.93 82.92 287.34C79.57 289.11 50.69 301.13 49.24 299.66C48.29 298.69 42 283.56 37.82 271.65C30.87 266.34 31.22 252.85 32.27 246.77C40.22 230.34 33.06 207.16 28.48 197.62C13.07 163.83 32.98 140.16 44.86 132.54C51.74 129.92 60.21 126.66 69.25 123.16L63.54 107.53C62.54 104.8 102.06 90.54 102.7 92.3L108.37 107.81C124.99 101.17 137.98 95.75 139.43 94.51C143.5 91.02 150.94 45.75 157.28 40.71C158.05 30.55 160.11 9.46 162.18 6.37C164.77 2.52 171 1.15 173.09 2.39C174.75 3.38 180.5 21.19 183.17 29.97C186.51 28.51 195.85 28.14 206.43 38.38L241.58 49.04C242.88 50.35 245.55 54.16 243.31 59.49C240.59 65.96 238.82 72.87 236.18 74.22C235.38 74.64 232.6 75.3 228.98 76.16C220.76 78.12 208.21 81.11 204.75 84.54C199.78 89.49 205.13 108.39 208.49 117.59Z" fill="#000000" fill-opacity="0" fill-rule="evenodd"/>
		<path id="path" d="M164.19 162.21C165.29 165.23 168.55 174.15 170.05 178.23C179.51 200.72 199.29 245.63 202.71 245.37C206.99 245.04 232.99 235.26 235.59 233.35C238.19 231.43 232.06 214.28 228.89 215.03C226.36 215.62 223.7 215.51 222.69 215.37C216.37 207 204.8 185.49 209.06 166.44C214.38 142.62 211.86 126.79 208.49 117.59C205.13 108.39 199.78 89.49 204.75 84.54C209.72 79.6 233.55 75.58 236.18 74.22C238.82 72.87 240.59 65.96 243.31 59.49C245.55 54.16 242.88 50.35 241.58 49.04L206.43 38.38C195.85 28.14 186.51 28.51 183.17 29.97M209.06 166.44C206.72 146.94 195.44 109.03 175.26 101.06C159.66 94.89 152.82 96.12 148.69 97.63M170.05 178.23C156.31 181.18 128.09 185.32 109.68 182.14C106.23 181.54 103.11 180.68 100.51 179.51C100.18 195.02 94.68 227.97 75.88 244.67C74.27 246.1 72.57 247.4 70.76 248.57C64.98 256.73 58.2 273.46 77.31 275.09C80.29 278.58 85.6 285.93 82.92 287.34C79.57 289.11 50.69 301.13 49.24 299.66C48.29 298.69 42 283.56 37.82 271.65C35.65 265.45 34.04 260.12 34.06 258.12C34.1 252.28 48.36 220.16 44.88 210.16C41.41 200.16 15.21 156.65 44.86 132.54M37.82 271.65C30.87 266.34 31.22 252.85 32.27 246.77C40.22 230.34 33.06 207.16 28.48 197.62C13.07 163.83 32.98 140.16 44.86 132.54C51.74 129.92 60.21 126.66 69.25 123.16C82.18 118.16 96.24 112.66 108.37 107.81C124.99 101.17 137.98 95.75 139.43 94.51C143.5 91.02 150.94 45.75 157.28 40.71C158.05 30.55 160.11 9.46 162.18 6.37C164.77 2.52 171 1.15 173.09 2.39C174.75 3.38 180.5 21.19 183.17 29.97L187.63 42.16M108.37 107.81C106.7 103.23 103.22 93.71 102.7 92.3C102.06 90.54 62.54 104.8 63.54 107.53C64.33 109.71 67.68 118.86 69.25 123.16M109.68 182.14C110.98 193.33 112.79 217.71 109.65 225.74C105.74 235.78 121.9 254.15 127.1 252.25C132.31 250.34 135.81 256.82 138.2 264.68C127.77 270.13 106.48 280.69 104.78 279.35C102.67 277.67 76.68 250.96 75.88 244.67" stroke="#383434" stroke-opacity="1.000000" stroke-width="4.205060" stroke-linejoin="round"/>
		<ellipse id="ellipse" rx="3.458370" ry="4.758901" transform="matrix(-0.560246 0.828326 0.828326 0.560246 203.655 43.3784)" fill="#383434" fill-opacity="1.000000"/>
		<circle id="circle" r="1.738200" transform="matrix(-0.939191 0.343396 0.343396 0.939191 202.03 42.4722)" fill="#FFFFFF" fill-opacity="1.000000"/>
		<path id="path" d="M235.73 48.95C235.27 51.11 233.34 55.5 242.8 58.47C243.3 54.95 242.83 47.43 235.73 48.95Z" fill="#383434" fill-opacity="1.000000" fill-rule="nonzero"/>
	</g>
</svg>
