<svg width="290.000000" height="310.000000" viewBox="0 0 290 310" fill="none" xmlns="http://www.w3.org/2000/svg" xmlns:xlink="http://www.w3.org/1999/xlink">
	<desc>
			Created with Pixso.
	</desc>
	<defs>
		<clipPath id="clip80_46">
			<rect id="Fish" width="290.000000" height="310.000000" fill="white" fill-opacity="0"/>
		</clipPath>
	</defs>
	<g clip-path="url(#clip80_46)">
		<path id="path" d="M77.19 205.98C79.78 194.08 104.09 192.32 115.93 192.93L147.7 157.03C152.62 87.29 204.81 55.42 230.28 48.2C231.62 44.89 235.81 37.97 241.87 36.73C249.43 35.19 275 62.54 274.67 65.74C274.41 68.3 267.89 75.47 264.66 78.73C259.75 114.68 222.64 150.43 204.71 163.81C203.03 175.31 190.9 188.58 187.77 189.34C185.28 189.95 177.69 180.44 174.22 175.62C174.04 175.37 172.94 175.07 169.94 175.8C166.94 176.53 148.04 201.13 138.97 213.34C142.53 230.9 135.92 252.75 130.89 254.34C126.86 255.61 111.33 235.85 104.06 225.82C97.06 223.19 83.23 211.5 77.19 205.98Z" fill="#29AEE3" fill-opacity="1.000000" fill-rule="nonzero"/>
		<path id="path" d="M77.19 205.98C83.23 211.5 97.06 223.19 104.06 225.82C111.33 235.85 126.86 255.61 130.89 254.34C135.92 252.75 142.53 230.9 138.97 213.34C148.04 201.13 166.94 176.53 169.94 175.8C172.94 175.07 174.04 175.37 174.22 175.62C177.69 180.44 185.28 189.95 187.77 189.34C190.9 188.58 203.03 175.31 204.71 163.81C222.64 150.43 259.75 114.68 264.66 78.73C267.89 75.47 274.41 68.3 274.67 65.74C275 62.54 249.43 35.19 241.87 36.73C235.81 37.97 231.62 44.89 230.28 48.2C204.81 55.42 152.62 87.29 147.7 157.03L115.93 192.93C104.09 192.32 79.78 194.08 77.19 205.98Z" fill="#000000" fill-opacity="0" fill-rule="evenodd"/>
		<path id="path" d="M115.93 192.93C104.09 192.32 79.78 194.08 77.19 205.98C83.23 211.5 97.06 223.19 104.06 225.82C111.33 235.85 126.86 255.61 130.89 254.34C135.92 252.75 142.53 230.9 138.97 213.34M204.71 163.81C203.03 175.31 190.9 188.58 187.77 189.34C185.28 189.95 177.69 180.44 174.22 175.62C174.04 175.37 172.94 175.07 169.94 175.8C166.94 176.53 148.04 201.13 138.97 213.34C131.17 218.78 114.56 228.59 110.49 224.25C105.4 218.83 109.69 199.98 115.93 192.93L147.7 157.03C152.62 87.29 204.81 55.42 230.28 48.2C241.09 55.71 263.1 72.32 264.66 78.73C259.75 114.68 222.64 150.43 204.71 163.81C191.46 164.23 178.86 171.85 174.22 175.62M264.66 78.73C267.89 75.47 274.41 68.3 274.67 65.74C275 62.54 249.43 35.19 241.87 36.73C235.81 37.97 231.62 44.89 230.28 48.2" stroke="#383434" stroke-opacity="1.000000" stroke-width="4.000000" stroke-linejoin="round"/>
		<path id="path" d="M130 123.24C131.01 127.38 145.82 134.33 153.1 137.29C158.35 107.32 182.21 78.56 193.48 67.93C179.63 67.31 162.54 79.95 156.4 85.43C150.27 90.91 128.74 118.07 130 123.24Z" fill="#29AEE3" fill-opacity="1.000000" fill-rule="nonzero"/>
		<path id="path" d="M153.1 137.29C158.35 107.32 182.21 78.56 193.48 67.93C179.63 67.31 162.54 79.95 156.4 85.43C150.27 90.91 128.74 118.07 130 123.24C131.01 127.38 145.82 134.33 153.1 137.29Z" stroke="#383434" stroke-opacity="1.000000" stroke-width="4.000000" stroke-linejoin="round"/>
		<path id="path" d="M232.1 144.69C228.68 148.01 218.66 144.72 209.17 142.55C206.14 141.83 207.07 138.8 207.91 137.38C211.19 130.41 224.09 123.73 230.13 121.26C232.31 119.98 236.95 118.35 238.05 122.07C239.43 126.71 235.53 141.36 232.1 144.69Z" fill="#29AEE3" fill-opacity="1.000000" fill-rule="nonzero"/>
		<path id="path" d="M209.17 142.55C206.14 141.83 207.07 138.8 207.91 137.38C211.19 130.41 224.09 123.73 230.13 121.26C232.31 119.98 236.95 118.35 238.05 122.07C239.43 126.71 235.53 141.36 232.1 144.69C228.68 148.01 218.66 144.72 209.17 142.55Z" stroke="#383434" stroke-opacity="1.000000" stroke-width="4.000000"/>
		<circle id="circle" r="7.276489" transform="matrix(0.971588 -0.236679 0.236679 0.971588 219.979 77.4033)" fill="#000000" fill-opacity="0"/>
		<circle id="circle" r="7.276489" transform="matrix(0.971588 -0.236679 0.236679 0.971588 219.979 77.4033)" stroke="#383434" stroke-opacity="1.000000" stroke-width="4.000000"/>
		<g opacity="0.100000">
			<path id="path" d="M187.31 134.37C194.66 140.2 201.5 143.82 201.5 143.82C197.33 149.07 187.99 148.6 180.64 142.76C173.29 136.92 170.72 127.94 174.89 122.69C174.89 122.69 179.96 128.53 187.31 134.37Z" fill="#383434" fill-opacity="1.000000" fill-rule="nonzero"/>
		</g>
		<g opacity="0.100000">
			<path id="path" d="M177.51 146.22C183.5 150.97 189.07 153.92 189.07 153.92C185.67 158.19 178.07 157.81 172.09 153.06C166.1 148.31 164 140.99 167.4 136.71C167.4 136.71 171.53 141.47 177.51 146.22Z" fill="#383434" fill-opacity="1.000000" fill-rule="nonzero"/>
		</g>
		<g opacity="0.100000">
			<path id="path" d="M166.71 157.62C171.09 161.1 175.17 163.25 175.17 163.25C172.68 166.38 167.12 166.1 162.74 162.62C158.36 159.14 156.82 153.78 159.3 150.65C159.3 150.65 162.33 154.14 166.71 157.62Z" fill="#383434" fill-opacity="1.000000" fill-rule="nonzero"/>
		</g>
		<g opacity="0.100000">
			<path id="path" d="M224.22 102.09C233.86 103.79 241.94 103.7 241.94 103.7C240.73 110.59 231.93 114.8 222.29 113.11C212.64 111.42 205.81 104.46 207.02 97.57C207.02 97.57 214.58 100.4 224.22 102.09Z" fill="#383434" fill-opacity="1.000000" fill-rule="nonzero"/>
		</g>
	</g>
</svg>
