<svg width="292.000000" height="310.000000" viewBox="0 0 292 310" fill="none" xmlns="http://www.w3.org/2000/svg" xmlns:xlink="http://www.w3.org/1999/xlink">
	<desc>
			Created with Pixso.
	</desc>
	<defs>
		<clipPath id="clip80_56">
			<rect id="Raptor" width="292.000000" height="310.000000" fill="white" fill-opacity="0"/>
		</clipPath>
	</defs>
	<g clip-path="url(#clip80_56)">
		<path id="path" d="M185.49 101.79C177.83 104.59 177.03 118.86 184.28 129.17C189.56 136.69 194.73 144.01 198.78 146.43C203.72 149.38 212.19 147.25 213.68 146.95C218.96 145.85 226.01 141.9 227.11 144.88C227.76 146.65 223.37 155.38 227.34 157.95C231.31 160.52 237.31 163.62 243.79 161.24C248.24 159.61 247.05 138.7 241.78 130.66C232.05 115.8 214.57 122.5 212.35 122.48C210.14 122.47 210.13 117.23 205.62 111.11C200.87 104.67 195.07 98.27 185.49 101.79Z" fill="#1C974D" fill-opacity="1.000000" fill-rule="nonzero"/>
		<path id="path" d="M184.28 129.17C189.56 136.69 194.73 144.01 198.78 146.43C203.72 149.38 212.19 147.25 213.68 146.95C218.96 145.85 226.01 141.9 227.11 144.88C227.76 146.65 223.37 155.38 227.34 157.95C231.31 160.52 237.31 163.62 243.79 161.24C248.24 159.61 247.05 138.7 241.78 130.66C232.05 115.8 214.57 122.5 212.35 122.48C210.14 122.47 210.13 117.23 205.62 111.11C200.87 104.67 195.07 98.27 185.49 101.79C177.83 104.59 177.03 118.86 184.28 129.17Z" stroke="#383434" stroke-opacity="1.000000" stroke-width="4.000000" stroke-linejoin="round"/>
		<path id="path" d="M132.65 118.67C121.34 128.8 132.24 142.21 137.63 148.27C143.02 154.34 162.94 164.73 166.49 166.88C170.05 169.03 164.95 187.96 165.17 195.43C165.4 202.91 169.3 206.69 177.61 215.58C180.48 218.64 193.81 216.03 197.32 215.35L197.45 215.32C206.32 213.59 223.52 207.28 227.48 205.83L240.25 201.15C240.25 201.15 237.83 178.08 224.4 183C207.02 189.38 196.12 188.15 193.61 181.29C191.09 174.43 200.08 161.28 193.97 151.77C185.92 139.22 167.34 87.55 132.65 118.67Z" fill="#1C974D" fill-opacity="1.000000" fill-rule="nonzero"/>
		<path id="path" d="M137.63 148.27C143.02 154.34 162.94 164.73 166.49 166.88C170.05 169.03 164.95 187.96 165.17 195.43C165.4 202.91 169.3 206.69 177.61 215.58C180.48 218.64 193.81 216.03 197.32 215.35L197.45 215.32C206.32 213.59 223.52 207.28 227.48 205.83L240.25 201.15C240.25 201.15 237.83 178.08 224.4 183C207.02 189.38 196.12 188.15 193.61 181.29C191.09 174.43 200.08 161.28 193.97 151.77C185.92 139.22 167.34 87.55 132.65 118.67C121.34 128.8 132.24 142.21 137.63 148.27Z" stroke="#383434" stroke-opacity="1.000000" stroke-width="4.000000" stroke-linejoin="round"/>
		<path id="path" d="M196.84 76.27C193.32 78.83 190.6 83.9 188.62 86.45C186.43 89.27 183.84 92.25 176.72 92.83C165.46 93.75 136.15 102.25 125.28 106.9C114.4 111.55 88.26 103.42 68.26 102.15C48.26 100.88 16.46 107.57 3.96 115.47C-8.54 123.36 -3.05 134.09 6.17 131.87C17.1 129.24 31.2 129.65 45.81 130.74C61.44 131.9 112.08 148.98 124.71 160.4C137.33 171.82 168.09 174.45 198.82 159.87C229.56 145.29 220.13 124.08 222.61 123.17C225.09 122.26 228.69 109.52 228.02 103.64C227.49 98.94 231.71 82.25 233.88 74.49C253.62 67.03 270.81 48.48 272.14 46.59C273.14 45.17 272.32 42.18 270.97 38.82C269.65 35.54 268.68 31.4 266.71 29.05C262.9 24.5 235.74 20.88 221.4 19.68C215.79 18.82 212.45 24.17 211.49 26.96C192.96 33.48 194 62.55 196.84 76.27Z" fill="#1C974D" fill-opacity="1.000000" fill-rule="nonzero"/>
		<path id="path" d="M233.88 74.49C253.62 67.03 270.81 48.48 272.14 46.59C273.14 45.17 272.32 42.18 270.97 38.82C269.65 35.54 268.68 31.4 266.71 29.05C262.9 24.5 235.74 20.88 221.4 19.68C215.79 18.82 212.45 24.17 211.49 26.96C192.96 33.48 194 62.55 196.84 76.27C193.32 78.83 190.6 83.9 188.62 86.45C186.43 89.27 183.84 92.25 176.72 92.83C165.46 93.75 136.15 102.25 125.28 106.9C114.4 111.55 88.26 103.42 68.26 102.15C48.26 100.88 16.46 107.57 3.96 115.47C-8.54 123.36 -3.05 134.09 6.17 131.87C17.1 129.24 31.2 129.65 45.81 130.74C61.44 131.9 112.08 148.98 124.71 160.4C137.33 171.82 168.09 174.45 198.82 159.87C229.56 145.29 220.13 124.08 222.61 123.17C225.09 122.26 228.69 109.52 228.02 103.64C227.49 98.94 231.71 82.25 233.88 74.49ZM203.58 74.28L203.56 74.27C202.95 73.33 203.21 72.12 204.15 71.51C205.09 70.9 206.31 71.16 206.92 72.1L206.91 72.13L203.58 74.28Z" fill="#000000" fill-opacity="0" fill-rule="nonzero"/>
		<path id="path" d="M205.24 73.19C212.04 83.73 224.65 77.99 233.88 74.49C253.62 67.03 270.81 48.48 272.14 46.59C273.14 45.17 272.32 42.18 270.97 38.82C269.65 35.54 268.68 31.4 266.71 29.05C262.9 24.5 235.74 20.88 221.4 19.68C215.79 18.82 212.45 24.17 211.49 26.96C192.96 33.48 194 62.55 196.84 76.27C193.32 78.83 190.6 83.9 188.62 86.45C186.43 89.27 183.84 92.25 176.72 92.83C165.46 93.75 136.15 102.25 125.28 106.9C114.4 111.55 88.26 103.42 68.26 102.15C48.26 100.88 16.46 107.57 3.96 115.47C-8.54 123.36 -3.05 134.09 6.17 131.87C17.1 129.24 31.2 129.65 45.81 130.74C61.44 131.9 112.08 148.98 124.71 160.4C137.33 171.82 168.09 174.45 198.82 159.87C229.56 145.29 220.13 124.08 222.61 123.17C225.09 122.26 228.69 109.52 228.02 103.64C227.49 98.94 231.71 82.25 233.88 74.49" stroke="#383434" stroke-opacity="1.000000" stroke-width="4.000000" stroke-linejoin="round"/>
		<path id="path" d="M193.44 103.13C185.78 105.94 184.97 120.2 192.23 130.52C197.51 138.03 202.68 145.36 206.73 147.77C211.67 150.72 220.13 148.6 221.63 148.29C226.91 147.2 233.96 143.25 235.06 146.23C235.7 148 231.31 156.73 235.29 159.29C239.26 161.86 245.26 164.96 251.73 162.59C256.19 160.95 255 140.05 249.73 132C239.99 117.15 222.52 123.84 220.3 123.83C218.08 123.81 218.08 118.58 213.57 112.46C208.82 106.02 203.02 99.62 193.44 103.13Z" fill="#1C974D" fill-opacity="1.000000" fill-rule="nonzero"/>
		<path id="path" d="M192.23 130.52C197.51 138.03 202.68 145.36 206.73 147.77C211.67 150.72 220.13 148.6 221.63 148.29C226.91 147.2 233.96 143.25 235.06 146.23C235.7 148 231.31 156.73 235.29 159.29C239.26 161.86 245.26 164.96 251.73 162.59C256.19 160.95 255 140.05 249.73 132C239.99 117.15 222.52 123.84 220.3 123.83C218.08 123.81 218.08 118.58 213.57 112.46C208.82 106.02 203.02 99.62 193.44 103.13C185.78 105.94 184.97 120.2 192.23 130.52Z" stroke="#383434" stroke-opacity="1.000000" stroke-width="4.000000" stroke-linejoin="round"/>
		<path id="path" d="M124.98 126.8C113.68 136.94 124.57 150.34 129.96 156.41C135.35 162.48 155.27 172.87 158.83 175.02C162.38 177.17 157.28 196.1 157.51 203.57C157.73 211.05 161.63 214.82 169.95 223.71C172.81 226.78 186.14 224.17 189.66 223.48L189.78 223.46C198.66 221.72 215.85 215.42 219.81 213.97L232.59 209.28C232.59 209.28 230.16 186.22 216.73 191.14C199.35 197.51 188.46 196.29 185.94 189.43C183.42 182.56 192.42 169.42 186.31 159.9C178.25 147.36 159.67 95.69 124.98 126.8Z" fill="#1C974D" fill-opacity="1.000000" fill-rule="nonzero"/>
		<path id="path" d="M129.96 156.41C135.35 162.48 155.27 172.87 158.83 175.02C162.38 177.17 157.28 196.1 157.51 203.57C157.73 211.05 161.63 214.82 169.95 223.71C172.81 226.78 186.14 224.17 189.66 223.48L189.78 223.46C198.66 221.72 215.85 215.42 219.81 213.97L232.59 209.28C232.59 209.28 230.16 186.22 216.73 191.14C199.35 197.51 188.46 196.29 185.94 189.43C183.42 182.56 192.42 169.42 186.31 159.9C178.25 147.36 159.67 95.69 124.98 126.8C113.68 136.94 124.57 150.34 129.96 156.41Z" stroke="#383434" stroke-opacity="1.000000" stroke-width="4.000000" stroke-linejoin="round"/>
		<path id="path" d="M212.14 62.49C209.38 63.51 204.93 59.92 203.05 58C192.91 47.42 209.29 31.24 213.04 30.26C216.79 29.27 224.7 35.37 224.72 35.95C224.74 36.54 223.71 39.07 226.45 47.07C229.18 55.07 215.59 61.23 212.14 62.49Z" fill="#033561" fill-opacity="1.000000" fill-rule="nonzero"/>
		<path id="path" d="M217.03 51.23C219.43 50.35 220.62 48.33 221.16 46.58C221.44 45.7 221.57 44.85 221.61 44.17C221.63 43.83 221.63 43.51 221.61 43.25C221.6 43.01 221.57 42.72 221.48 42.48C221.39 42.24 221.24 42.06 221.15 41.97C221.05 41.85 220.94 41.75 220.83 41.66C220.6 41.47 220.32 41.27 220.01 41.08C219.39 40.68 218.58 40.25 217.73 39.87C216.88 39.49 215.95 39.14 215.09 38.93C214.28 38.74 213.31 38.61 212.51 38.91C211.22 39.38 210.07 40.59 209.39 42C208.7 43.44 208.41 45.25 209.06 47.03C209.7 48.77 211.01 50.05 212.46 50.78C213.89 51.5 215.59 51.76 217.03 51.23Z" fill="#FFDD65" fill-opacity="1.000000" fill-rule="nonzero"/>
		<path id="path" d="M221.16 46.58C221.44 45.7 221.57 44.85 221.61 44.17C221.63 43.83 221.63 43.51 221.61 43.25C221.6 43.01 221.57 42.72 221.48 42.48C221.39 42.24 221.24 42.06 221.15 41.97C221.05 41.85 220.94 41.75 220.83 41.66C220.6 41.47 220.32 41.27 220.01 41.08C219.39 40.68 218.58 40.25 217.73 39.87C216.88 39.49 215.95 39.14 215.09 38.93C214.28 38.74 213.31 38.61 212.51 38.91C211.22 39.38 210.07 40.59 209.39 42C208.7 43.44 208.41 45.25 209.06 47.03C209.7 48.77 211.01 50.05 212.46 50.78C213.89 51.5 215.59 51.76 217.03 51.23C219.43 50.35 220.62 48.33 221.16 46.58Z" stroke="#000000" stroke-opacity="1.000000" stroke-width="2.190760"/>
		<ellipse id="ellipse" rx="0.701462" ry="2.957649" transform="matrix(0.938868 -0.344277 0.344277 0.938868 198.588 38.1414)" fill="#383434" fill-opacity="1.000000"/>
		<path id="path" d="M270.11 37.61L270.11 37.59C270.81 37.11 271.72 37.27 272.2 37.96C272.68 38.66 272.51 39.57 271.82 40.05L271.79 40.05L270.11 37.61ZM223.9 65.87L223.91 65.9C223.6 66.67 222.74 67.03 221.96 66.72C221.18 66.4 220.82 65.54 221.14 64.76L221.16 64.75L223.9 65.87Z" fill="#000000" fill-opacity="0" fill-rule="nonzero"/>
		<path id="path" d="M270.97 38.82C268.11 40.8 262.96 44.19 260.64 47.75C256.96 53.39 246.91 61.66 225.91 63.54C225.3 63.65 223.1 63.92 222.53 65.33" stroke="#383434" stroke-opacity="1.000000" stroke-width="3.000000" stroke-linejoin="round" stroke-linecap="round"/>
		<path id="path" d="M231.26 31.75L231.25 31.77C230.43 31.96 229.64 31.47 229.45 30.65C229.25 29.83 229.75 29.04 230.56 28.85L230.59 28.86L231.26 31.75ZM237.13 34.61L237.13 34.63C236.48 35.17 235.55 35.08 235.02 34.43C234.49 33.78 234.57 32.85 235.22 32.32L235.25 32.32L237.13 34.61Z" fill="#000000" fill-opacity="0" fill-rule="nonzero"/>
		<path id="path" d="M230.91 30.31C234.54 29.46 240.55 29.88 236.18 33.48" stroke="#383434" stroke-opacity="1.000000" stroke-width="3.000000" stroke-linejoin="round" stroke-linecap="round"/>
		<path id="path" d="M186.87 98.94C188.07 95.98 189.74 93.44 190.92 91.63C191.24 91.14 191.53 90.7 191.76 90.33C192.62 88.93 193.51 87.28 194.37 85.67C194.93 84.65 195.47 83.64 195.99 82.71C196.69 81.5 197.49 80.4 198.1 79.57C198.91 78.47 199.37 77.85 198.73 78.07C196.94 78.66 194.9 81.36 193.47 83.64C191.15 87.36 185.93 94.26 183.16 96.4C180.38 98.54 175.93 101.11 171.15 100.8C166.76 100.52 148.37 103.59 140.25 106.8L139.87 106.95C130.52 110.65 108.78 119.25 100.77 114.05C92.65 108.78 80.56 108.33 76.29 109.15C72.52 109.88 67.44 108.73 63.06 107.73C60.44 107.13 58.07 106.6 56.38 106.55C52.51 106.45 35.54 107.85 32.73 108.88C32.01 109.14 30.91 109.45 29.68 109.79C26.06 110.8 21.27 112.14 21.68 113.62C22.14 115.29 26.28 113.74 30.22 112.27C30.71 112.09 31.19 111.9 31.67 111.73C33.99 110.88 35.16 111.83 36.42 112.87C37.92 114.09 39.54 115.42 43.35 114.02C44.28 113.68 45.23 113.3 46.17 112.91C50.45 111.17 54.65 109.45 56.77 112.18C59.07 115.14 65.29 121.5 68.85 117.5C72.57 113.33 82.62 110.58 86.22 117.32C89.82 124.06 97.01 131.36 102.93 131.43C108.21 131.5 120.15 123.75 125.13 119.74C129.84 115.95 138.71 111.2 149.44 108.76C156.5 107.16 161.83 109.99 166.94 112.71C169.6 114.12 172.21 115.51 174.97 116.23C181.27 117.86 183.51 110.08 185.34 103.74C185.85 101.94 186.34 100.26 186.87 98.94ZM83.67 118.45C84.47 120.64 83.92 122.86 82.43 123.41C80.93 123.95 79.07 122.62 78.27 120.43C77.46 118.23 78.02 116.01 79.51 115.46C81 114.92 82.87 116.25 83.67 118.45ZM49.89 116.36C50.73 115.91 51.18 115.13 50.9 114.61C50.63 114.1 49.73 114.04 48.89 114.49C48.06 114.94 47.61 115.72 47.88 116.23C48.16 116.75 49.06 116.8 49.89 116.36ZM52.46 112.6C53.05 112.57 53.56 113.3 53.62 114.25C53.67 115.19 53.24 115.99 52.66 116.02C52.07 116.05 51.56 115.31 51.5 114.37C51.45 113.42 51.88 112.63 52.46 112.6ZM32.47 116.82C33.14 115.21 33.04 113.63 32.23 113.3C31.43 112.96 30.24 113.99 29.57 115.6C28.89 117.21 29 118.79 29.8 119.12C30.6 119.46 31.8 118.43 32.47 116.82Z" fill="#033561" fill-opacity="1.000000" fill-rule="evenodd"/>
	</g>
</svg>
