<svg xmlns="http://www.w3.org/2000/svg" xml:space="preserve" viewBox="0 0 60 60"><path d="M37 40H25a3.5 3.5 0 0 0 0 7h12a3.5 3.5 0 0 0 0-7zm0 5H25a1.5 1.5 0 0 1 0-3h12a1.5 1.5 0 0 1 0 3z"/><path d="M51.5 31.7V31l6.4 4.8a1 1 0 0 0 1.4-.2c.3-.4.2-1-.2-1.4l-7.6-5.7V27l5.4 3.8a1 1 0 0 0 1.4-.2c.3-.5.2-1-.2-1.4L52.2 25c1 0 2-.3 2.7-.8 1-.8 1.6-2.2 1.6-4.1 0-8.3-9.1-17.8-21.5-19.8h-.2l-2-.2h-.3a30.5 30.5 0 0 0-4 0h-.3l-2 .2H26C13.6 2.3 4.5 11.7 4.5 20.1c0 2 .5 3.3 1.6 4 .7.6 1.6.9 2.7.9l-5.9 4.2a1 1 0 1 0 1.2 1.6L9.5 27v1.6L.9 35.2A1 1 0 0 0 2 36.8L9.5 31v.6L1.7 42.4a1 1 0 1 0 1.6 1.2l4.4-6-5.2 16.1a1 1 0 0 0 2 .6l5-15.8V51a5 5 0 0 0 5 5h2v1.7c0 1.3 1 2.3 2.3 2.3h23.4c1.3 0 2.3-1 2.3-2.3V56h2a5 5 0 0 0 5-5V38.5l5 15.8a1 1 0 1 0 2-.6l-5.2-16.1 4.4 6a1 1 0 0 0 1.4.2c.4-.3.5-1 .2-1.4l-7.8-10.7zM32 27.8l-.3.2h-1.4l-.3-.2a20.2 20.2 0 0 0-18.5-.8v-2.3l1-.2h.2a55.2 55.2 0 0 0 5.2-1.4c3.7-1 8-2 12.6-2a48.6 48.6 0 0 1 16.1 3h.5l.5.2a42.3 42.3 0 0 0 1.8.4h.1V27a18.4 18.4 0 0 0-17.5.8zm17.5 1.4c0 3.7-.9 6.2-4.3 6.6-4.5.5-7.7 0-9.7-1.8a6.6 6.6 0 0 1-2-4.8c5-2.7 11-2.7 16 0zm-21 0c-.1 2-.8 3.6-2 4.7-2 1.8-5.5 2.5-10.5 2-3.6-.5-4.4-2.9-4.5-6.6a18.2 18.2 0 0 1 17 0zm4-27.1h.2l2 .2c2.8.5 5.5 1.4 8 2.6h.1l1.7 1 .2.1 1.5 1h.1a61.6 61.6 0 0 0-16.1-2.5c-5.6 0-10.7 1.1-15.1 2.3 3.9-2.7 8.5-4.3 13.3-4.7h.2a25.8 25.8 0 0 1 3.9 0zM8.7 13.3l.5-.7.2-.3a21.2 21.2 0 0 1 2-2.4l1.9-.5a63.9 63.9 0 0 1 16.9-3 63.9 63.9 0 0 1 19.6 3.7l1.7 2 .1.2.4.5.3.5.2.3a88 88 0 0 1-5-1.2c-4.8-1.4-10.8-3-17.3-3-6.6 0-12.6 1.6-17.5 3l-4.1 1 .1-.1zm-1.4 9.3c-.5-.4-.8-1.2-.8-2.5 0-1.4.3-3 1-4.4l5.8-1.4a63.8 63.8 0 0 1 16.9-3c6.2 0 12.1 1.7 16.8 3 2.6.7 4.7 1.3 6.6 1.5.6 1.5.9 2.9.9 4.3 0 1.3-.3 2.1-.8 2.5-.6.5-1.7.5-3.1.3l-.6-.1-.6-.2H49a89.7 89.7 0 0 1-5.5-1.5h-.2a50 50 0 0 0-12.8-2c-4.8 0-9.2 1-13 2h-.1a274.3 274.3 0 0 0-5.5 1.5h-.3l-.6.2h-.6c-1.4.3-2.5.3-3.1-.2zm35.2 35c0 .3-.1.4-.3.4H18.8a.3.3 0 0 1-.3-.3V56h24v1.7zm4-3.6h-32a3 3 0 0 1-3-3V35.8c1 1 2.3 1.8 4.3 2l3.3.2c3.9 0 6.8-.9 8.7-2.6a8.2 8.2 0 0 0 2.6-5.4h1.2a8.3 8.3 0 0 0 2.6 5.5c1.9 1.7 4.6 2.5 8.1 2.5 1 0 2 0 3.2-.2 1.8-.2 3.1-1 4-1.9V51a3 3 0 0 1-3 3z"/><path d="M18.2 28.3a1 1 0 0 0-1.4 0l-3 3a1 1 0 1 0 1.4 1.4l3-3c.4-.4.4-1 0-1.4zM17.8 34.7a1 1 0 0 0 1.4 0l5-5a1 1 0 1 0-1.4-1.4l-5 5a1 1 0 0 0 0 1.4zM35.8 32.7a1 1 0 0 0 1.4 0l3-3a1 1 0 1 0-1.4-1.4l-3 3a1 1 0 0 0 0 1.4zM39.8 34.7a1 1 0 0 0 1.4 0l5-5a1 1 0 1 0-1.4-1.4l-5 5a1 1 0 0 0 0 1.4zM46.2 47.7c.2-.2.3-.4.3-.7s-.1-.5-.3-.7a1 1 0 0 0-1.4 0c-.2.2-.3.4-.3.7s.1.5.3.7c.2.2.4.3.7.3s.5-.1.7-.3zM45.5 45c.3 0 .5-.1.7-.3.2-.2.3-.4.3-.7a1 1 0 0 0-.3-.7 1 1 0 0 0-1.4 0 1 1 0 0 0-.3.7c0 .3.1.5.3.7.2.2.4.3.7.3zM48.5 45c.3 0 .5-.1.7-.3.2-.2.3-.4.3-.7a1 1 0 0 0-.3-.7 1 1 0 0 0-1.4 0 1 1 0 0 0 0 1.4c.2.2.4.3.7.3zM47.8 46.3c-.2.2-.3.4-.3.7s.1.5.3.7c.2.2.4.3.7.3s.5-.1.7-.3c.2-.2.3-.4.3-.7a1 1 0 0 0-.3-.7 1 1 0 0 0-1.4 0zM45.8 49.3a1 1 0 0 0-.3.7c0 .3.1.5.3.7.2.2.4.3.7.3.3 0 .5-.1.7-.3.2-.2.3-.4.3-.7a1 1 0 0 0-.3-.7 1 1 0 0 0-1.4 0zM42.8 49.3a1 1 0 0 0-.3.7c0 .3.1.5.3.7.2.2.4.3.7.3.3 0 .5-.1.7-.3.2-.2.3-.4.3-.7s-.1-.5-.3-.7a1 1 0 0 0-1.4 0zM43.2 47.7c.2-.2.3-.4.3-.7s-.1-.5-.3-.7a1 1 0 0 0-1.4 0c-.2.2-.3.4-.3.7s.1.5.3.7a1 1 0 0 0 1.4 0zM39.8 49.3c-.2.2-.3.4-.3.7s.1.5.3.7c.2.2.4.3.7.3.3 0 .5-.1.7-.3.2-.2.3-.4.3-.7s-.1-.5-.3-.7a1 1 0 0 0-1.4 0zM36.8 49.3c-.2.2-.3.4-.3.7s.1.5.3.7c.2.2.4.3.7.3.3 0 .5-.1.7-.3.2-.2.3-.4.3-.7s-.1-.5-.3-.7a1 1 0 0 0-1.4 0zM33.8 49.3c-.2.2-.3.4-.3.7s.1.5.3.7c.2.2.4.3.7.3.3 0 .5-.1.7-.3.2-.2.3-.4.3-.7a1 1 0 0 0-.3-.7 1 1 0 0 0-1.4 0zM17.2 46.3a1 1 0 0 0-1.4 0c-.2.2-.3.4-.3.7s.1.5.3.7c.2.2.4.3.7.3s.5-.1.7-.3c.2-.2.3-.4.3-.7s-.1-.5-.3-.7zM16.5 45c.3 0 .5-.1.7-.3.2-.2.3-.4.3-.7a1 1 0 0 0-.3-.7c-.4-.4-1-.4-1.4 0a1 1 0 0 0 .7 1.7zM13.5 45c.3 0 .5-.1.7-.3.2-.2.3-.4.3-.7a1 1 0 0 0-.3-.7 1 1 0 0 0-1.4 0 1 1 0 0 0 0 1.4c.2.2.4.3.7.3zM14.2 46.3a1 1 0 0 0-1.4 0 1 1 0 0 0-.3.7c0 .3.1.5.3.7.2.2.4.3.7.3.3 0 .5-.1.7-.3.2-.2.3-.4.3-.7s-.1-.5-.3-.7zM14.8 49.3c-.2.2-.3.4-.3.7s.1.5.3.7c.2.2.4.3.7.3.3 0 .5-.1.7-.3.2-.2.3-.4.3-.7s-.1-.5-.3-.7a1 1 0 0 0-1.4 0zM17.8 49.3c-.2.2-.3.4-.3.7s.1.5.3.7c.2.2.4.3.7.3.3 0 .5-.1.7-.3.2-.2.3-.4.3-.7s-.1-.5-.3-.7a1 1 0 0 0-1.4 0zM20.2 46.3a1 1 0 0 0-1.4 0 1 1 0 0 0-.3.7c0 .3.1.5.3.7.2.2.4.3.7.3s.5-.1.7-.3c.2-.2.3-.4.3-.7s-.1-.5-.3-.7zM20.8 49.3c-.2.2-.3.4-.3.7s.1.5.3.7a1 1 0 0 0 1.4 0c.2-.2.3-.4.3-.7s-.1-.5-.3-.7a1 1 0 0 0-1.4 0zM24.8 49.3c-.2.2-.3.4-.3.7s.1.5.3.7a1 1 0 0 0 1.4 0c.2-.2.3-.4.3-.7s-.1-.5-.3-.7a1 1 0 0 0-1.4 0zM27.8 49.3c-.2.2-.3.4-.3.7s.1.5.3.7c.2.2.4.3.7.3.3 0 .5-.1.7-.3.2-.2.3-.4.3-.7s-.1-.5-.3-.7a1 1 0 0 0-1.4 0zM30.8 49.3a1 1 0 0 0-.3.7c0 .3.1.5.3.7.2.2.4.3.7.3.3 0 .5-.1.7-.3.2-.2.3-.4.3-.7s-.1-.5-.3-.7a1 1 0 0 0-1.4 0z"/></svg>